<svg xmlns="http://www.w3.org/2000/svg" viewBox="0 0 100 100"><defs><style>.cls-1{fill:none;}</style></defs><title>music</title><g id="Layer_1" data-name="Layer 1"><rect class="cls-1" width="100" height="100"/></g><g id="Layer_8" data-name="Layer 8"><g id="zvOwE1.tif"><path d="M25,72.05A5.49,5.49,0,0,1,27.47,68a10.34,10.34,0,0,1,4.08-1.34c1.45-.22,2.92,0,4.38-.23a9.51,9.51,0,0,0,2.19-.48A2.68,2.68,0,0,0,40,63.29c0-1.69,0-3.38,0-5.07q0-14.4,0-28.82a8.89,8.89,0,0,1,.06-1,2,2,0,0,1,1.73-1.8c3.24-.68,6.48-1.37,9.72-2l21.13-4.35a1.9,1.9,0,0,1,2.45,1.64,8.23,8.23,0,0,1,.1,1.21q0,21.44,0,42.87a7.85,7.85,0,0,1-7.36,8,14.38,14.38,0,0,1-6.94-.87,6.92,6.92,0,0,1-4.62-6.45A5.12,5.12,0,0,1,59.86,61a15.83,15.83,0,0,1,4.1-.85c1.48-.17,3,0,4.44-.22,1.94-.27,2.81-1.2,2.81-3.17q0-10.9,0-21.8c0-1.28-.39-1.58-1.68-1.29l-8.39,1.84L45.36,39c-1.21.26-1.44.52-1.44,1.78,0,5.66,0,11.32,0,17,0,4.66-.09,9.32,0,14,.11,4.82-3.07,7.56-7.15,8.31l-1.32.22H32.18L31,80c-2.87-.6-4.95-2.1-5.72-5.07-.13-.51-.19-1-.29-1.55Z"/></g></g></svg>