<svg xmlns="http://www.w3.org/2000/svg" viewBox="0 0 100 100"><defs><style>.cls-1,.cls-2{fill:none;}.cls-2{stroke:#6d6e71;stroke-linecap:round;stroke-linejoin:round;opacity:0.5;}</style></defs><title>background</title><g id="Layer_1" data-name="Layer 1"><rect class="cls-1" width="100" height="100"/></g><g id="Layer_7" data-name="Layer 7"><rect class="cls-2" x="12.82" y="12.82" width="74.36" height="74.36" rx="7.09"/><line class="cls-2" x1="12.82" y1="19.91" x2="19.91" y2="12.82"/><line class="cls-2" x1="12.82" y1="23.45" x2="23.45" y2="12.82"/><line class="cls-2" x1="12.82" y1="27" x2="27" y2="12.82"/><line class="cls-2" x1="12.82" y1="30.54" x2="30.54" y2="12.82"/><line class="cls-2" x1="12.82" y1="34.09" x2="33.81" y2="13.1"/><line class="cls-2" x1="12.82" y1="37.63" x2="37.35" y2="13.1"/><line class="cls-2" x1="12.82" y1="41.18" x2="41.18" y2="12.82"/><line class="cls-2" x1="12.82" y1="44.72" x2="44.44" y2="13.1"/><line class="cls-2" x1="12.82" y1="48.27" x2="48.27" y2="12.82"/><line class="cls-2" x1="12.82" y1="51.81" x2="51.81" y2="12.82"/><line class="cls-2" x1="12.82" y1="55.36" x2="55.08" y2="13.1"/><line class="cls-2" x1="12.82" y1="58.9" x2="58.9" y2="12.82"/><line class="cls-2" x1="12.82" y1="62.44" x2="62.17" y2="13.1"/><line class="cls-2" x1="12.82" y1="65.99" x2="65.71" y2="13.1"/><line class="cls-2" x1="12.82" y1="69.53" x2="69.25" y2="13.1"/><line class="cls-2" x1="12.82" y1="73.08" x2="73.08" y2="12.82"/><line class="cls-2" x1="12.82" y1="76.62" x2="76.62" y2="12.82"/><line class="cls-2" x1="12.82" y1="80.17" x2="79.89" y2="13.1"/><line class="cls-2" x1="13.44" y1="83.03" x2="82.61" y2="13.87"/><line class="cls-2" x1="14.99" y1="85.03" x2="84.81" y2="15.21"/><rect class="cls-2" x="12.82" y="12.82" width="74.36" height="74.36" rx="7.09" transform="translate(100 100) rotate(180)"/><line class="cls-2" x1="87.18" y1="80.09" x2="80.09" y2="87.18"/><line class="cls-2" x1="87.18" y1="76.55" x2="76.55" y2="87.18"/><line class="cls-2" x1="87.18" y1="73" x2="73" y2="87.18"/><line class="cls-2" x1="87.18" y1="69.46" x2="69.46" y2="87.18"/><line class="cls-2" x1="87.18" y1="65.91" x2="66.19" y2="86.9"/><line class="cls-2" x1="87.18" y1="62.37" x2="62.65" y2="86.9"/><line class="cls-2" x1="87.18" y1="58.82" x2="58.82" y2="87.18"/><line class="cls-2" x1="87.18" y1="55.28" x2="55.56" y2="86.9"/><line class="cls-2" x1="87.18" y1="51.73" x2="51.73" y2="87.18"/><line class="cls-2" x1="87.18" y1="48.19" x2="48.19" y2="87.18"/><line class="cls-2" x1="87.18" y1="44.64" x2="44.92" y2="86.9"/><line class="cls-2" x1="87.18" y1="41.1" x2="41.1" y2="87.18"/><line class="cls-2" x1="87.18" y1="37.56" x2="37.83" y2="86.9"/><line class="cls-2" x1="87.18" y1="34.01" x2="34.29" y2="86.9"/><line class="cls-2" x1="87.18" y1="30.47" x2="30.75" y2="86.9"/><line class="cls-2" x1="87.18" y1="26.92" x2="26.92" y2="87.18"/><line class="cls-2" x1="87.18" y1="23.38" x2="23.38" y2="87.18"/><line class="cls-2" x1="87.18" y1="19.83" x2="20.11" y2="86.9"/><line class="cls-2" x1="86.56" y1="16.97" x2="17.39" y2="86.13"/><g id="zvOwE1.tif"><path d="M25,72.05A5.49,5.49,0,0,1,27.47,68a10.34,10.34,0,0,1,4.08-1.34c1.45-.22,2.92,0,4.38-.23a9.51,9.51,0,0,0,2.19-.48A2.68,2.68,0,0,0,40,63.29c0-1.69,0-3.38,0-5.07q0-14.4,0-28.82a8.89,8.89,0,0,1,.06-1,2,2,0,0,1,1.73-1.8c3.24-.68,6.48-1.37,9.72-2l21.13-4.35a1.9,1.9,0,0,1,2.45,1.64,8.23,8.23,0,0,1,.1,1.21q0,21.44,0,42.87a7.85,7.85,0,0,1-7.36,8,14.38,14.38,0,0,1-6.94-.87,6.92,6.92,0,0,1-4.62-6.45A5.12,5.12,0,0,1,59.86,61a15.83,15.83,0,0,1,4.1-.85c1.48-.17,3,0,4.44-.22,1.94-.27,2.81-1.2,2.81-3.17q0-10.9,0-21.8c0-1.28-.39-1.58-1.68-1.29l-8.39,1.84L45.36,39c-1.21.26-1.44.52-1.44,1.78,0,5.66,0,11.32,0,17,0,4.66-.09,9.32,0,14,.11,4.82-3.07,7.56-7.15,8.31l-1.32.22H32.18L31,80c-2.87-.6-4.95-2.1-5.72-5.07-.13-.51-.19-1-.29-1.55Z"/></g></g></svg>