<svg xmlns="http://www.w3.org/2000/svg" viewBox="0 0 100 100"><defs><style>.cls-1,.cls-3,.cls-6{fill:none;}.cls-2{fill:#fff;}.cls-2,.cls-3,.cls-4,.cls-5{stroke:#231f20;}.cls-2,.cls-3,.cls-4,.cls-5,.cls-6{stroke-miterlimit:10;}.cls-4{fill:#bcbec0;}.cls-5{fill:#231f20;}.cls-6{stroke:#fff;}</style></defs><title>eyes</title><g id="Layer_1" data-name="Layer 1"><rect class="cls-1" width="100" height="100"/></g><g id="Layer_5" data-name="Layer 5"><path class="cls-2" d="M83.93,91.83s-17-6.31-17.1-7.17-.53-26.83-.53-26.83c.24-1.26.46-2.6.64-4s.29-2.64.36-3.86c.51.09,5.94,1,9.73-2.94.37-.39,3.6-3.93,2.78-8.44a8.51,8.51,0,0,0-2.6-4.51A9.56,9.56,0,0,0,73,31.75c-2.46-.59-4.37.14-5.18-1-.44-.6-.26-1.33-.15-2.15.46-3.45-.52-7.47-2.3-9.3-.86-.87-2.29-1.16-5.15-1.73A42.85,42.85,0,0,0,48,17.07a37.55,37.55,0,0,0-5,.8c-4.54,1-7.66,1.8-8.9,4.37-.75,1.56-.75,3.67-.75,6a30.78,30.78,0,0,0,.34,4.54,13,13,0,0,0-2.83-.18,10.13,10.13,0,0,0-7.63,9.13,9.2,9.2,0,0,0,6.92,9.67,9.49,9.49,0,0,0,4.86,0A13.29,13.29,0,0,1,36,56.7L37,84.25s-.08,1-.79,1.24-20.13,6.34-20.13,6.34Z"/><path class="cls-3" d="M67.63,46.31C67.46,51,65.25,63.16,64.9,65s-.42,2.47-3.4,6.3-7,3.66-9,3.74-7.14-.51-10.63-3.06-8.08-27-8.08-27"/><path class="cls-3" d="M29.81,40.12c-.81.55-.71,2.41,0,3.17"/><path class="cls-3" d="M73.1,40.12c1.06,1.21-.45,2.61-.45,2.61"/><path class="cls-4" d="M50.34,36.41c1.21,0,4.3,0,4.3,0l-.46-1.66H50.75Z"/><path class="cls-4" d="M51.24,36.7a7.38,7.38,0,0,0-2.14-5.12A9.11,9.11,0,0,0,42.48,29a10.41,10.41,0,0,0-6.71,2.09c-1,.8-3.5,2.7-3.51,5.64,0,2.68,2,4.49,2.74,5.14a10.12,10.12,0,0,0,6.75,2.34,9.47,9.47,0,0,0,6.36-1.77A7.66,7.66,0,0,0,51.24,36.7Z"/><ellipse class="cls-5" cx="41.88" cy="36.77" rx="7.61" ry="5.42"/><path class="cls-4" d="M72.05,35.87a7.28,7.28,0,0,0-2.61-5.1,9.1,9.1,0,0,0-6.62-1.85,9.21,9.21,0,0,0-5.88,1.81,7.52,7.52,0,0,0-3,5.61,7.4,7.4,0,0,0,2.47,5.39,9,9,0,0,0,6.48,2.19,9.37,9.37,0,0,0,6.14-2.07C69.67,41.32,72.18,39.2,72.05,35.87Z"/><path class="cls-5" d="M70.34,37.19a4.67,4.67,0,0,0-.08-2.8,5.4,5.4,0,0,0-3.06-2.84,8.6,8.6,0,0,0-4.33-.63,8.21,8.21,0,0,0-4.56,1.17,5.72,5.72,0,0,0-2.78,4.23c-.13,2.74,2.37,4.46,2.78,4.74a7.33,7.33,0,0,0,4.6,1.15A8.56,8.56,0,0,0,68.6,40,5.74,5.74,0,0,0,70.34,37.19Z"/><line class="cls-6" x1="39.25" y1="37.46" x2="43.88" y2="31.54"/><line class="cls-6" x1="44.55" y1="36.01" x2="39.75" y2="41.97"/><line class="cls-6" x1="64.41" y1="36.41" x2="59.96" y2="41.87"/><line class="cls-6" x1="59.96" y1="36.77" x2="64.68" y2="30.89"/></g></svg>