<svg xmlns="http://www.w3.org/2000/svg" viewBox="0 0 100 100"><defs><style>.cls-1,.cls-3,.cls-5{fill:none;}.cls-2{fill:#fff;}.cls-2,.cls-3,.cls-4{stroke:#231f20;}.cls-2,.cls-3,.cls-4,.cls-5{stroke-miterlimit:10;}.cls-4{fill:#231f20;}.cls-5{stroke:#fff;}</style></defs><title>beard</title><g id="Layer_1" data-name="Layer 1"><rect class="cls-1" width="100" height="100"/></g><g id="Layer_3" data-name="Layer 3"><path class="cls-2" d="M83.93,91.5s-17.05-6.31-17.11-7.17-.53-26.85-.53-26.85c.24-1.26.46-2.6.64-4s.29-2.64.36-3.86c.51.09,5.94,1,9.74-3,.37-.38,3.6-3.93,2.78-8.43A8.46,8.46,0,0,0,77.2,33.7,9.45,9.45,0,0,0,73,31.39c-2.46-.59-4.37.14-5.18-1-.44-.6-.26-1.33-.15-2.15.47-3.46-.52-7.48-2.31-9.31-.85-.87-2.28-1.16-5.14-1.72A42.51,42.51,0,0,0,48,16.7a37.55,37.55,0,0,0-5,.8c-4.55,1.05-7.67,1.81-8.91,4.38-.75,1.56-.75,3.66-.75,6a30.9,30.9,0,0,0,.34,4.54,13,13,0,0,0-2.83-.18,10.15,10.15,0,0,0-7.64,9.14,9.22,9.22,0,0,0,6.93,9.67,9.49,9.49,0,0,0,4.86,0,12.83,12.83,0,0,1,.9,5.29L37,83.92s-.09,1-.8,1.24S16.07,91.5,16.07,91.5Z"/><path class="cls-3" d="M67.62,46c-.17,4.68-2.39,16.86-2.73,18.65s-.42,2.47-3.4,6.3-7,3.66-9,3.75-7.14-.51-10.63-3.07-8.09-27-8.09-27"/><path class="cls-3" d="M29.78,39.76c-.81.56-.71,2.42,0,3.17"/><path class="cls-3" d="M73.09,39.76c1.06,1.21-.45,2.62-.45,2.62"/><path class="cls-4" d="M67.29,49.6a21.86,21.86,0,0,0,.42-2.55A1.28,1.28,0,0,0,67.62,46a.81.81,0,0,0-.74-.28,1,1,0,0,0-.64.5c-.94,1.45-1.46,7.18-1.85,7.16l0,0c-.59-.49-1.34-3.44-2.26-4.35s-2.22-.06-5.29.33A45.56,45.56,0,0,1,46.23,49c-2.71-.28-3.86-.55-4.6.23C40.71,50.21,40,53.39,40,54c0,0,0,0,0,0a13.24,13.24,0,0,1-2.46-4.93c-.49-1.67-.38-2.45-1.14-2.94s-2-.53-2.23-.16a.21.21,0,0,0,0,.16c1.13,5.63,1.37,11.45,2.9,17,2.14,7.75,2.35,9.72,4.44,11.09a15.49,15.49,0,0,0,4.61,1.88,25.55,25.55,0,0,0,4,.42c5.29.49,6.37,1.41,8.36.54a9.65,9.65,0,0,0,2.67-2.2A15.06,15.06,0,0,0,65,69.57a12.65,12.65,0,0,0,.83-5.91A33.53,33.53,0,0,1,66.37,56C67.08,52.33,67,50.41,67.29,49.6Z"/><path class="cls-5" d="M38.77,60a24.64,24.64,0,0,0,.29,5"/><path class="cls-5" d="M40.37,62.49c.29,2.4.29,6.44.47,7.68"/><path class="cls-5" d="M42.56,73.62l-.53-1"/><path class="cls-5" d="M42.56,64.12c.42,4,.48,6.29,1.37,7.83"/><path class="cls-5" d="M43.45,62.49A10.3,10.3,0,0,0,44.16,65"/><path class="cls-5" d="M45.05,63.23a19.92,19.92,0,0,1,0,5.05"/><path class="cls-5" d="M47,65c.24,2.67-1.36,8.37-1.36,8.37"/><path class="cls-5" d="M61.12,63.68a13.32,13.32,0,0,1-.47,4.14"/><path class="cls-5" d="M63.07,61.55a11.07,11.07,0,0,1-.38,3.72"/><path class="cls-2" d="M42,58.8a9.28,9.28,0,0,0,5.71.64c1.93-.44,2.42-1.36,4.27-1.36,1.49,0,1.48.59,4.23,1.11s3.75.09,4.16-.18a4.23,4.23,0,0,0,1.29-1.39A5.66,5.66,0,0,0,62.5,55a5.73,5.73,0,0,0-.39-2.42,3.61,3.61,0,0,0-1.41-1.92,3.44,3.44,0,0,0-2.54-.06,34.8,34.8,0,0,1-12.84.22l-.09,0c-.68-.11-2-.39-3,.37a4.29,4.29,0,0,0-1.1,2.08A11.3,11.3,0,0,0,40.84,55a5.87,5.87,0,0,0-.1,2A3.12,3.12,0,0,0,42,58.8Z"/></g></svg>