<svg xmlns="http://www.w3.org/2000/svg" viewBox="0 0 100 100"><defs><style>.cls-1{fill:none;}</style></defs><title>info</title><g id="Layer_1" data-name="Layer 1"><rect class="cls-1" width="100" height="100"/></g><g id="Layer_9" data-name="Layer 9"><path d="M51.78,89.32H48.24a2.63,2.63,0,0,0-.39-.06,37.6,37.6,0,0,1-9.46-1.69,39.39,39.39,0,0,1-27.6-34.86,37.83,37.83,0,0,1,.76-10.87A39.37,39.37,0,0,1,47.87,10.75a38,38,0,0,1,11.87,1.16A38.79,38.79,0,0,1,81.13,26a38.47,38.47,0,0,1,8.06,20.86c0,.46.09.91.13,1.36v3.54a3,3,0,0,0-.06.42,37.92,37.92,0,0,1-1.44,8.59A38.82,38.82,0,0,1,74,81.13a38.44,38.44,0,0,1-20.86,8.06ZM15.74,50A34.27,34.27,0,1,0,50,15.73,34.26,34.26,0,0,0,15.74,50Z"/><path d="M54.8,60.83H46.34s0,0,0-.07a21.1,21.1,0,0,1,.75-7.54A12,12,0,0,1,49.69,49a50,50,0,0,1,4.84-4.36c1-.9,2.12-1.79,3.08-2.78A5.82,5.82,0,0,0,58,34.15a7.41,7.41,0,0,0-4.53-2.71,10.61,10.61,0,0,0-5.8.38,8.14,8.14,0,0,0-4.76,4.63c-.38.88-.62,1.83-.93,2.75a2.23,2.23,0,0,1-.08.24l-8.58-1.06c.06-.51.09-1,.18-1.49,1.12-5.91,4.76-9.63,10.24-11.71a17.9,17.9,0,0,1,4.85-1,25.8,25.8,0,0,1,6.27.21,16.12,16.12,0,0,1,11.8,7.49,11.47,11.47,0,0,1,1.71,6.94,11,11,0,0,1-2.58,6.34,42.5,42.5,0,0,1-5,5c-1.3,1.15-2.62,2.28-3.88,3.47a5.42,5.42,0,0,0-1.81,3.11c-.13.87-.2,1.76-.27,2.64C54.77,59.82,54.8,60.32,54.8,60.83Z"/><path d="M46.3,73.44V64.83h8.61v8.61Z"/></g></svg>