<svg xmlns="http://www.w3.org/2000/svg" viewBox="0 0 100 100"><defs><style>.cls-1,.cls-3{fill:none;}.cls-2{fill:#fff;}.cls-2,.cls-3,.cls-4{stroke:#231f20;stroke-miterlimit:10;}.cls-4{fill:#be1e2d;}</style></defs><title>mouth</title><g id="Layer_1" data-name="Layer 1"><rect class="cls-1" width="100" height="100"/></g><g id="Layer_6" data-name="Layer 6"><path class="cls-2" d="M84.18,91.83S67,85.48,67,84.61s-.53-27-.53-27c.24-1.26.46-2.61.64-4s.29-2.65.37-3.88c.5.09,6,1,9.79-3,.38-.39,3.63-4,2.8-8.5a8.46,8.46,0,0,0-2.62-4.54,9.55,9.55,0,0,0-4.2-2.33c-2.47-.59-4.39.14-5.21-1-.45-.6-.26-1.34-.15-2.16.46-3.48-.53-7.53-2.32-9.37-.86-.88-2.3-1.16-5.18-1.74A43.14,43.14,0,0,0,48,16.54a36.59,36.59,0,0,0-5,.81c-4.58,1-7.71,1.81-9,4.39-.76,1.58-.76,3.7-.76,6.09a29.69,29.69,0,0,0,.35,4.57,12.61,12.61,0,0,0-2.86-.18,10.21,10.21,0,0,0-7.68,9.2A9.38,9.38,0,0,0,35,51.12a13.64,13.64,0,0,1,.72,2.62,12.9,12.9,0,0,1,.18,2.71L36.94,84.2s-.09,1-.8,1.25-20.28,6.38-20.28,6.38Z"/><path class="cls-3" d="M67.75,46c-.17,4.72-2.4,17-2.74,18.78s-.43,2.48-3.43,6.34-7,3.69-9,3.77-7.19-.51-10.71-3.08-8.14-27.18-8.14-27.18"/><path class="cls-3" d="M29.66,39.75c-.81.56-.71,2.43,0,3.19"/><path class="cls-3" d="M73.26,39.75c1.07,1.21-.45,2.63-.45,2.63"/><path class="cls-2" d="M42,51.93c.1-.53,3.81.29,10.09.09,5.25-.17,8.83-.93,9.09-.09.11.38-.54.91-1.62,1.79a11.29,11.29,0,0,1-3.61,2c-1.31.38-2.56.32-8.34-1.61C43.82,52.89,41.93,52.25,42,51.93Z"/><path class="cls-4" d="M58.09,54.08A3.83,3.83,0,0,1,61,58.17c-.07.49-.18,1.32-.74,1.61-.84.44-2.27-.58-3-1.39-.17-.21-.2-.28-.73-1-.14-.18-.46-.54-1.09-1.24,0,0-.59-.66-1-.67A4.1,4.1,0,0,1,58.09,54.08Z"/><path class="cls-4" d="M55.4,54.83a3.63,3.63,0,0,1,2.47.66A3.71,3.71,0,0,1,59.33,58"/></g></svg>