<svg xmlns="http://www.w3.org/2000/svg" viewBox="0 0 100 100"><defs><style>.cls-1{fill:none;}.cls-2{fill:#231f20;}.cls-3{fill:#58595b;}</style></defs><title>music-off</title><g id="Layer_1" data-name="Layer 1"><rect class="cls-1" width="100" height="100"/></g><g id="Layer_10" data-name="Layer 10"><rect class="cls-2" x="7.2" y="49.06" width="85.6" height="1.88" transform="translate(-20.71 50) rotate(-45)"/><path class="cls-3" d="M26.32,76.13c.74,2.88,2.75,4.32,5.53,4.9l1.15.22h3.19c.42-.07.85-.13,1.27-.21,3.95-.73,7-3.38,6.92-8s0-9,0-13.52V57.7l-3.82,3.81c0,1.12,0,2.24,0,3.36a2.58,2.58,0,0,1-1.77,2.54,9.56,9.56,0,0,1-2.12.47A22.34,22.34,0,0,1,34,68l-7.8,7.79A3.59,3.59,0,0,0,26.32,76.13Z"/><path class="cls-3" d="M69.13,36.22c1.24-.27,1.62,0,1.62,1.25q0,10.55,0,21.08c0,1.91-.85,2.8-2.72,3.07-1.43.2-2.86.05-4.29.21a15.33,15.33,0,0,0-4,.82,5,5,0,0,0-3.49,5.42,6.67,6.67,0,0,0,4.47,6.24,13.69,13.69,0,0,0,6.71.84,7.57,7.57,0,0,0,7.11-7.76q0-19.94,0-39.86L65,37.14Z"/><path class="cls-3" d="M73,22.82a7.59,7.59,0,0,0-.1-1.17,1.84,1.84,0,0,0-2.37-1.59L50.11,24.27l-9.4,2A1.93,1.93,0,0,0,39,28,6.73,6.73,0,0,0,39,29v29.5l3.82-3.82q0-7.36,0-14.71c0-1.22.22-1.47,1.39-1.73l15.26-3.33,4-.88L73,24.44Z"/><path class="cls-3" d="M30.83,65a9.87,9.87,0,0,0-3.94,1.3,5.3,5.3,0,0,0-2.42,3.94v1.29c.08.42.14.83.23,1.24l7.88-7.88A12.85,12.85,0,0,0,30.83,65Z"/></g></svg>