<svg xmlns="http://www.w3.org/2000/svg" viewBox="0 0 100 100"><defs><style>.cls-1,.cls-3{fill:none;}.cls-2{fill:#fff;}.cls-2,.cls-3,.cls-4{stroke:#231f20;stroke-miterlimit:10;}.cls-4{fill:#231f20;}</style></defs><title>hair</title><g id="Layer_1" data-name="Layer 1"><rect class="cls-1" width="100" height="100"/></g><g id="Layer_4" data-name="Layer 4"><path class="cls-2" d="M83.93,91.83s-17.05-6.31-17.12-7.17-.53-26.87-.53-26.87c.25-1.25.47-2.6.64-4s.29-2.64.37-3.86c.5.09,5.94,1,9.73-2.95.38-.38,3.61-3.93,2.78-8.44A8.35,8.35,0,0,0,77.2,34,9.4,9.4,0,0,0,73,31.7c-2.46-.6-4.37.13-5.19-1-.44-.6-.25-1.33-.14-2.14.46-3.46-.53-7.49-2.31-9.32-.85-.87-2.29-1.16-5.15-1.73A42.93,42.93,0,0,0,48,17a38,38,0,0,0-5,.8c-4.55,1.05-7.67,1.81-8.9,4.38-.76,1.56-.76,3.67-.76,6a29.14,29.14,0,0,0,.35,4.54,13.08,13.08,0,0,0-2.84-.18,10.17,10.17,0,0,0-7.64,9.15,9.69,9.69,0,0,0,.86,4.68,9.39,9.39,0,0,0,10.94,5A14.28,14.28,0,0,1,35.75,54a14.12,14.12,0,0,1,.18,2.68L37,84.25s-.09,1-.8,1.24S16,91.83,16,91.83Z"/><path class="cls-3" d="M67.61,46.27c-.17,4.68-2.38,16.86-2.72,18.65s-.43,2.47-3.41,6.31-7,3.66-9,3.75-7.14-.51-10.64-3.07-8.09-27-8.09-27"/><path class="cls-3" d="M29.76,40.07c-.81.55-.71,2.42,0,3.17"/><path class="cls-3" d="M73.09,40.07c1.06,1.21-.45,2.62-.45,2.62"/><path class="cls-4" d="M70.35,31.75,66.83,33.9A16.35,16.35,0,0,0,67,31.68c0-2.1-.43-3.11-.61-5.6-.05-.62-.09-1.4-.08-2.3A11.2,11.2,0,0,0,62,21c-3-1.07-4.56,0-9,.28-6.38.41-7.75-1.56-13.32-.57a22.74,22.74,0,0,0-5.44,1.69.32.32,0,0,0-.21,0c-.15,0-.32.26-.32,1v10S32.56,32.37,32,32.37a7.07,7.07,0,0,0-2.6.46,24.7,24.7,0,0,0,.34-5.28,25,25,0,0,0-.34-3.12,28.35,28.35,0,0,1,0-7.55,5.64,5.64,0,0,1,2.46-3c.69-.37,2.21-.93,2.21-.93a18.42,18.42,0,0,1,15.55-2,8.59,8.59,0,0,0,2.44,0A8.89,8.89,0,0,0,56,9.39a8.6,8.6,0,0,1,2.65-2c1.93-.94,2.68-.37,4.51-1.15C65.75,5.12,66.39,3,67.48,3.3c.68.21.92,1.21,1.23,2.55.67,2.86,0,4.44.41,7.19,0,.27.19,1.18.32,2.06.07.43.16,1,.3,1.7C69.81,17.18,69.87,17.45,70.35,31.75Z"/><path class="cls-2" d="M68.08,10.07c-.38-2.8-.26-4-.86-4.21-.22-.1-.44,0-.81.14-.86.34-1,1-1.91,1.58a3.87,3.87,0,0,1-.8.35,13.64,13.64,0,0,1-2.85.39A9.93,9.93,0,0,0,57.68,10c-1.63,1-4,2.59-5.9,2.59s-6.25-2.23-7-1.87a9.63,9.63,0,0,1,2.93.09c1.62.3,1.74.77,3,1a7.35,7.35,0,0,0,4.71-1.15c1.27-.81.9-1.13,2.22-1.91a10,10,0,0,1,4.1-1.35c1.68-.13,2-.2,2.61-.67s2-1.71,2.61-2.24a.86.86,0,0,1,.48-.2h0s.6.28.64.31c.91.45.62,7.06.22,7A5.87,5.87,0,0,1,68.08,10.07Z"/></g></svg>