<svg xmlns="http://www.w3.org/2000/svg" viewBox="0 0 100 100"><defs><style>.cls-1,.cls-3{fill:none;}.cls-2,.cls-4{fill:#fff;}.cls-2,.cls-3{stroke:#231f20;stroke-miterlimit:10;}</style></defs><title>nose</title><g id="Layer_1" data-name="Layer 1"><rect class="cls-1" width="100" height="100"/></g><g id="Layer_11" data-name="Layer 11"><path class="cls-2" d="M83.93,91.83s-17.05-6.31-17.12-7.17-.53-26.87-.53-26.87c.25-1.25.47-2.6.64-4s.29-2.64.37-3.86c.5.09,5.94,1,9.73-2.95.38-.38,3.61-3.93,2.78-8.44A8.35,8.35,0,0,0,77.2,34,9.4,9.4,0,0,0,73,31.7c-2.46-.6-4.37.13-5.19-1-.44-.6-.25-1.33-.14-2.14.46-3.46-.53-7.49-2.31-9.32-.85-.87-2.29-1.16-5.15-1.73A42.93,42.93,0,0,0,48,17a38,38,0,0,0-5,.8c-4.55,1.05-7.67,1.81-8.9,4.38-.76,1.56-.76,3.67-.76,6a29.14,29.14,0,0,0,.35,4.54,13.08,13.08,0,0,0-2.84-.18,10.17,10.17,0,0,0-7.64,9.15,9.69,9.69,0,0,0,.86,4.68,9.39,9.39,0,0,0,10.94,5A14.28,14.28,0,0,1,35.75,54a14.12,14.12,0,0,1,.18,2.68L37,84.25s-.09,1-.8,1.24S16,91.83,16,91.83Z"/><path class="cls-3" d="M67.61,46.27c-.17,4.68-2.38,16.86-2.72,18.65s-.43,2.47-3.41,6.31-7,3.66-9,3.75-7.14-.51-10.64-3.07-8.09-27-8.09-27"/><path class="cls-3" d="M29.76,40.07c-.81.55-.71,2.42,0,3.17"/><path class="cls-3" d="M73.09,40.07c1.06,1.21-.45,2.62-.45,2.62"/><path class="cls-4" d="M56.71,35.22c.16,7.34.08,13.47-.05,18.18-.08,2.83-.22,6.15-2.34,7.34a4.54,4.54,0,0,1-4.44-.29c-2.25-1.44-2.53-4.61-2.71-7.32-.25-3.92-.66-17.42-.24-17.91C48.1,33.84,56.71,35.22,56.71,35.22Z"/><path class="cls-3" d="M56.71,35.22c.16,7.34.08,13.47-.05,18.18-.08,2.83-.22,6.15-2.34,7.34a4.54,4.54,0,0,1-4.44-.29c-2.25-1.44-2.53-4.61-2.71-7.32-.28-4.29-.5-10.33-.24-17.91"/></g></svg>