<svg xmlns="http://www.w3.org/2000/svg" viewBox="0 0 100 100"><defs><style>.cls-1{fill:none;}.cls-2{fill:none;}</style></defs><title>share</title><g id="Layer_1" data-name="Layer 1"><rect class="cls-1" width="100" height="100"/></g><g id="Layer_14" data-name="Layer 14"><g id="Jd1zBO.tif"><path class="cls-2" d="M67.61,85.23H16.69V14.77H83.31V85.23h-12a1.72,1.72,0,0,1,.4-.17,13.64,13.64,0,1,0-6-26.56,13.86,13.86,0,0,0-6.57,4.28c-5-3-10-6-15-9a.76.76,0,0,1-.25-.64,13.61,13.61,0,0,0-.11-6.28l15.42-9.26c.2.22.34.42.52.59,4.06,3.92,8.84,5.19,14.17,3.33a12.84,12.84,0,0,0,9-11.59,12.78,12.78,0,0,0-6.09-12.54,12.73,12.73,0,0,0-14-.48c-5,2.8-7.29,7.21-6.92,13a1.18,1.18,0,0,1-.55.86c-5,3-10,6-15,9A1,1,0,0,1,39,39.61a13,13,0,0,0-8.2-3.07,13.64,13.64,0,1,0,2.32,27,14.08,14.08,0,0,0,6.53-3.29c.28.16.55.3.81.46,4.55,2.73,9.09,5.5,13.68,8.18a2.73,2.73,0,0,1,1.71,2.86A13.48,13.48,0,0,0,66.14,84.85Z"/><path d="M67.61,85.23l-1.47-.38A13.48,13.48,0,0,1,55.85,71.76a2.73,2.73,0,0,0-1.71-2.86c-4.59-2.68-9.13-5.45-13.68-8.18-.26-.16-.53-.3-.81-.46a14.08,14.08,0,0,1-6.53,3.29,13.64,13.64,0,1,1-2.32-27A13,13,0,0,1,39,39.61a1,1,0,0,0,1.34.13c5-3,10-6,15-9a1.18,1.18,0,0,0,.55-.86c-.37-5.76,2-10.17,6.92-13a12.73,12.73,0,0,1,14,.48,12.78,12.78,0,0,1,6.09,12.54,12.84,12.84,0,0,1-9,11.59c-5.33,1.86-10.11.59-14.17-3.33-.18-.17-.32-.37-.52-.59L43.7,46.82a13.61,13.61,0,0,1,.11,6.28.76.76,0,0,0,.25.64c5,3,10,6,15,9a13.86,13.86,0,0,1,6.57-4.28,13.64,13.64,0,1,1,6,26.56,1.72,1.72,0,0,0-.4.17Z"/></g></g></svg>